<svg xmlns="http://www.w3.org/2000/svg" xmlns:xlink="http://www.w3.org/1999/xlink" preserveAspectRatio="xMidYMid" width="20" height="20" viewBox="0 0 20 20">
  <defs>
    <style>

      .cls-2 {
        fill: #fa0e54;
      }
	  
	  
    </style>
  </defs>
  <path d="M20.000,3.334 C20.000,1.582 18.419,-0.000 16.667,-0.000 C16.667,-0.000 3.333,-0.000 3.333,-0.000 C1.581,-0.000 -0.000,1.582 -0.000,3.334 C-0.000,3.334 -0.000,16.666 -0.000,16.666 C-0.000,18.418 1.581,20.000 3.334,20.000 C3.334,20.000 10.000,20.000 10.000,20.000 C10.000,20.000 10.000,12.444 10.000,12.444 C10.000,12.444 7.555,12.444 7.555,12.444 C7.555,12.444 7.555,9.111 7.555,9.111 C7.555,9.111 10.000,9.111 10.000,9.111 C10.000,9.111 10.000,7.812 10.000,7.812 C10.000,5.573 11.682,3.556 13.750,3.556 C13.750,3.556 16.444,3.556 16.444,3.556 C16.444,3.556 16.444,6.889 16.444,6.889 C16.444,6.889 13.750,6.889 13.750,6.889 C13.455,6.889 13.111,7.247 13.111,7.783 C13.111,7.783 13.111,9.111 13.111,9.111 C13.111,9.111 16.444,9.111 16.444,9.111 C16.444,9.111 16.444,12.444 16.444,12.444 C16.444,12.444 13.111,12.444 13.111,12.444 C13.111,12.444 13.111,20.000 13.111,20.000 C13.111,20.000 16.667,20.000 16.667,20.000 C18.419,20.000 20.000,18.418 20.000,16.666 C20.000,16.666 20.000,3.334 20.000,3.334 Z" id="path-1" class="cls-2" fill-rule="evenodd"/>
</svg>
