<svg xmlns="http://www.w3.org/2000/svg" xmlns:xlink="http://www.w3.org/1999/xlink" preserveAspectRatio="xMidYMid" width="9" height="13" viewBox="0 0 9 13">
  <defs>
    <style>

      .cls-2 {
        fill: #ffffff;
      }
    </style>
  </defs>
  <path d="M8.031,13.000 C8.031,13.000 1.031,13.000 1.031,13.000 C0.479,13.000 0.031,12.552 0.031,12.000 C0.031,11.448 0.479,11.000 1.031,11.000 C1.031,11.000 7.031,11.000 7.031,11.000 C7.031,11.000 7.031,2.000 7.031,2.000 C7.031,2.000 1.031,2.000 1.031,2.000 C0.479,2.000 0.031,1.552 0.031,1.000 C0.031,0.448 0.479,0.000 1.031,0.000 C1.031,0.000 8.031,0.000 8.031,0.000 C8.583,0.000 9.031,0.448 9.031,1.000 C9.031,1.000 9.031,12.000 9.031,12.000 C9.031,12.552 8.583,13.000 8.031,13.000 ZM0.016,8.987 C0.016,8.987 0.016,4.013 0.016,4.013 C0.016,4.013 4.031,6.500 4.031,6.500 C4.031,6.500 0.016,8.987 0.016,8.987 Z" id="path-1" class="cls-2" fill-rule="evenodd"/>
</svg>
