<svg xmlns="http://www.w3.org/2000/svg" xmlns:xlink="http://www.w3.org/1999/xlink" preserveAspectRatio="xMidYMid" width="16" height="16" viewBox="0 0 16 16">
  <defs>
    <style>

      .cls-2 {
        fill: #fa0e54;
      }
    </style>
  </defs>
  <path d="M8.000,15.000 C8.000,15.000 8.000,9.000 8.000,9.000 C8.000,9.000 16.000,9.000 16.000,9.000 C16.000,9.000 16.000,16.000 16.000,16.000 C16.000,16.000 8.000,15.000 8.000,15.000 ZM8.000,1.000 C8.000,1.000 16.000,-0.000 16.000,-0.000 C16.000,-0.000 16.000,7.000 16.000,7.000 C16.000,7.000 8.000,7.000 8.000,7.000 C8.000,7.000 8.000,1.000 8.000,1.000 ZM-0.000,9.000 C-0.000,9.000 6.000,9.000 6.000,9.000 C6.000,9.000 6.000,15.000 6.000,15.000 C6.000,15.000 -0.000,14.000 -0.000,14.000 C-0.000,14.000 -0.000,9.000 -0.000,9.000 ZM-0.000,2.000 C-0.000,2.000 6.000,1.000 6.000,1.000 C6.000,1.000 6.000,7.000 6.000,7.000 C6.000,7.000 -0.000,7.000 -0.000,7.000 C-0.000,7.000 -0.000,2.000 -0.000,2.000 Z" id="path-1" class="cls-2" fill-rule="evenodd"/>
</svg>
